<svg id="Ilustración_9" data-name="Ilustración 9" xmlns="http://www.w3.org/2000/svg" width="25.986" height="25.986" viewBox="0 0 25.986 25.986">
  <g id="Group_685" data-name="Group 685" transform="translate(0 0)">
    <path id="Path_3982" data-name="Path 3982" d="M58.5,59.2,63,56.6,58.5,54Z" transform="translate(-47.239 -43.606)" fill="#162f5e"/>
    <path id="Path_3983" data-name="Path 3983" d="M12.993,0A12.993,12.993,0,1,0,25.986,12.993,12.993,12.993,0,0,0,12.993,0Zm8.3,17.163a2.17,2.17,0,0,1-1.532,1.532,51.787,51.787,0,0,1-6.768.362,51.787,51.787,0,0,1-6.768-.362,2.17,2.17,0,0,1-1.532-1.532,22.539,22.539,0,0,1-.362-4.17,22.539,22.539,0,0,1,.362-4.17A2.169,2.169,0,0,1,6.225,7.292a51.76,51.76,0,0,1,6.768-.362,51.76,51.76,0,0,1,6.768.362,2.169,2.169,0,0,1,1.532,1.532,22.539,22.539,0,0,1,.362,4.17A22.539,22.539,0,0,1,21.293,17.163Z" fill="#162f5e"/>
  </g>
</svg>
