<svg xmlns="http://www.w3.org/2000/svg" width="27.049" height="27.049" viewBox="0 0 27.049 27.049">
  <g id="Ilustración_30" data-name="Ilustración 30" transform="translate(93.111 93.112)">
    <path id="Path_2372" data-name="Path 2372" d="M13.525,0A13.525,13.525,0,1,0,27.049,13.525,13.525,13.525,0,0,0,13.525,0Zm5.739,17.521a1.484,1.484,0,1,1-2.1,2.1l-3.64-3.64-3.64,3.64a1.484,1.484,0,0,1-2.1-2.1l3.64-3.64-3.64-3.64a1.484,1.484,0,0,1,2.1-2.1l3.64,3.64,3.64-3.64a1.484,1.484,0,1,1,2.1,2.1l-3.64,3.64Z" transform="translate(-93.112 -93.112)" fill="#ffcbe1"/>
  </g>
</svg>
