<svg id="Group_775" data-name="Group 775" xmlns="http://www.w3.org/2000/svg" xmlns:xlink="http://www.w3.org/1999/xlink" width="155.199" height="38.161" viewBox="0 0 155.199 38.161">
  <defs>
    <clipPath id="clip-path">
      <rect id="Rectangle_290" data-name="Rectangle 290" width="155.199" height="38.161" fill="none"/>
    </clipPath>
  </defs>
  <g id="Group_741" data-name="Group 741" clip-path="url(#clip-path)">
    <path id="Path_4028" data-name="Path 4028" d="M56.577,446.47H47.864L45.9,456.87s-.179,1.124-1.917.984H35.526l-.17.843h9.467c1.737.141,1.917-.984,1.917-.984l1.968-10.4H55.44c.343-.472.525-.843,1.138-.843" transform="translate(-33.67 -425.173)" fill="#0280c4"/>
    <path id="Path_4029" data-name="Path 4029" d="M479.667,36.935,473.689,67.01a1.375,1.375,0,0,1-1.157.843h-8.9l-.162.843h9.9a1.375,1.375,0,0,0,1.157-.843l6.146-30.919Z" transform="translate(-441.365 -35.173)" fill="#0280c4"/>
    <path id="Path_4030" data-name="Path 4030" d="M294.629,49.021h2A5.293,5.293,0,0,0,298,46.211l1.772-9.276h-1l-1.611,8.432a4.988,4.988,0,0,1-2.53,3.654" transform="translate(-280.575 -35.173)" fill="#0280c4"/>
    <path id="Path_4031" data-name="Path 4031" d="M1044.974,163.626c-3.373,9.838-6.246,11.243-6.246,11.243h1.82c1.01-1.091,2.706-3.5,4.624-8.6Z" transform="translate(-989.18 -155.821)" fill="#0280c4"/>
    <path id="Path_4032" data-name="Path 4032" d="M1236.923,36.935l3.52,29.794s0,1.149-.843,1.136c-.681-.01-6.311,0-8.451,0l.02.844s8.432-.012,9.275,0,.843-1.136.843-1.136l-3.62-30.637Z" transform="translate(-1172.423 -35.173)" fill="#0280c4"/>
    <path id="Path_4033" data-name="Path 4033" d="M764.882,528.966h-8.995l-2.811,6.465s-.1.868-1.6,1h-7.355l-.4.843h8.6c1.495-.128,1.6-1,1.6-1l2.811-6.465h7.435c.135-.325.133-.7.717-.843" transform="translate(-708.245 -503.734)" fill="#0280c4"/>
    <path id="Path_4034" data-name="Path 4034" d="M1522.653,551.422a1.9,1.9,0,0,1-1.917,1.839h-19.783l-.171.843h20.8a1.9,1.9,0,0,0,1.917-1.839l1.124-5.622h-1.012Z" transform="translate(-1429.194 -520.569)" fill="#0280c4"/>
    <path id="Path_4035" data-name="Path 4035" d="M1705.9,60.405h2.43a4.272,4.272,0,0,0,.943-1.686l4.11-21.784h-1l-3.95,20.94s-.562,2.249-2.53,2.53" transform="translate(-1624.532 -35.173)" fill="#0280c4"/>
    <path id="Path_4036" data-name="Path 4036" d="M2052.987,551.422a1.9,1.9,0,0,1-1.917,1.839h-19.783l-.171.843h20.8a1.9,1.9,0,0,0,1.917-1.839l1.124-5.622h-1.012Z" transform="translate(-1934.231 -520.569)" fill="#0280c4"/>
    <path id="Path_4037" data-name="Path 4037" d="M2236.237,60.405h2.429a4.272,4.272,0,0,0,.943-1.686l4.11-21.784h-1l-3.951,20.94s-.562,2.249-2.53,2.53" transform="translate(-2129.568 -35.173)" fill="#0280c4"/>
    <path id="Path_4038" data-name="Path 4038" d="M2813.857,61.008a2.137,2.137,0,0,1,1.6-1.7c2.877-1,8.26.281,8.26.281,2.249.562,2.53-.843,2.53-.843l1.686-5.34c-.353-.074-.7-.142-1.044-.208L2825.4,57.9s-.281,1.405-2.53.843c0,0-5.383-1.283-8.26-.281a2.04,2.04,0,0,0-1.6,2.1Z" transform="translate(-2678.819 -50.659)" fill="#0280c4"/>
    <path id="Path_4039" data-name="Path 4039" d="M2578.187,372.813c1.574,1.73,1.4,5.9.844,7.308-2.53,6.465-8.836,7.361-15.449,7.6a43.147,43.147,0,0,1-9.049-.728l-.1.575a53.214,53.214,0,0,0,9.989,1c9.269.029,15.448-3.947,15.729-9.007.141-2.541-.281-5.34-1.968-6.746" transform="translate(-2432.589 -355.03)" fill="#0280c4"/>
    <path id="Path_4040" data-name="Path 4040" d="M3143.695,689.839l4.4-4.634.847.839-4.4,4.638Z" transform="translate(-2993.74 -652.521)" fill="#0280c4"/>
    <path id="Path_4041" data-name="Path 4041" d="M0,33.342,6.184,2.7A1.5,1.5,0,0,1,7.589,1.58h9.923L15.74,10.856a4.988,4.988,0,0,1-2.53,3.654H24.173L26.421,2.7s.019-1.124.993-1.124H37.626L31.481,32.5a1.375,1.375,0,0,1-1.157.843h-9.9l1.643-8.573s.562-2.811,2.249-2.811H13.351l-1.968,10.4s-.179,1.124-1.917.984Z" transform="translate(0 -1.505)" fill="#fff"/>
    <path id="Path_4042" data-name="Path 4042" d="M738.134,1.579H723.606l-15.24,31.774h8.6c1.495-.128,1.6-1,1.6-1l2.811-6.465h11.243A1.483,1.483,0,0,0,731.5,27.3l.141,6.055s8.432-.012,9.275,0,.843-1.136.843-1.136Zm-14.853,18.13s2.873-1.405,6.246-11.243l.843,11.243Z" transform="translate(-674.577 -1.504)" fill="#fff"/>
    <path id="Path_4043" data-name="Path 4043" d="M1465.427,33.354l6.13-30.228A1.836,1.836,0,0,1,1473.6,1.58h9.1l-4.11,21.784s-.562,2.249-2.53,2.53h13.211l-1.124,5.622a1.9,1.9,0,0,1-1.917,1.839Z" transform="translate(-1395.526 -1.505)" fill="#fff"/>
    <path id="Path_4044" data-name="Path 4044" d="M1995.759,33.354l6.13-30.228a1.836,1.836,0,0,1,2.039-1.546h9.1l-4.11,21.784s-.562,2.249-2.53,2.53H2019.6l-1.125,5.622a1.9,1.9,0,0,1-1.917,1.839Z" transform="translate(-1900.561 -1.505)" fill="#fff"/>
    <path id="Path_4045" data-name="Path 4045" d="M2546.345,1.059l-1.687,5.34s-.281,1.405-2.53.843c0,0-5.383-1.283-8.26-.281-2.421.843-1.859,3.373,0,4,1.258.426,11.914,4.147,10.789,11.737-1.1,7.422-8.976,8.907-15.589,9.147-3.524.128-8.583-.434-9.989-1,0,0,.843-5.059,1.124-6.465.11-.551.281-1.405,1.968-.843,0,0,7.623,2.161,10.541.417a2.032,2.032,0,0,0,0-3.62c-3.794-2.137-10.8-4.1-10.541-10.007.281-6.465,6.746-12.93,24.173-9.276" transform="translate(-2398.92 0)" fill="#fff"/>
    <path id="Path_4046" data-name="Path 4046" d="M3029.779,579.49l-4.82-4.626,4.539-4.65,4.682,4.638Z" transform="translate(-2880.667 -543.015)" fill="#fff"/>
  </g>
</svg>
