<svg xmlns="http://www.w3.org/2000/svg" xmlns:xlink="http://www.w3.org/1999/xlink" width="194.64" height="47.859" viewBox="0 0 194.64 47.859"><defs><clipPath id="a"><rect width="194.64" height="47.859" fill="none"/></clipPath></defs><g clip-path="url(#a)"><path d="M61.673,442.73H50.746l-2.468,13.043s-.225,1.41-2.4,1.234h-10.6l-.213,1.057H46.932c2.179.176,2.4-1.234,2.4-1.234L51.8,443.788h8.443c.43-.592.659-1.058,1.427-1.058" transform="translate(-32.944 -416.021)" fill="#0280c4"/><path d="M479.9,36.626l-7.5,37.718a1.725,1.725,0,0,1-1.451,1.058H459.794l-.2,1.058H472.01a1.725,1.725,0,0,0,1.451-1.058l7.707-38.776Z" transform="translate(-431.865 -34.416)" fill="#0280c4"/><path d="M292.161,51.784h2.5a6.638,6.638,0,0,0,1.727-3.525l2.223-11.633h-1.26L295.334,47.2a6.256,6.256,0,0,1-3.173,4.583" transform="translate(-274.536 -34.416)" fill="#0280c4"/><path d="M1037.862,162.255c-4.23,12.338-7.834,14.1-7.834,14.1h2.282c1.267-1.368,3.394-4.386,5.8-10.788Z" transform="translate(-967.889 -152.467)" fill="#0280c4"/><path d="M1228.078,36.626l4.415,37.366s0,1.441-1.057,1.425c-.854-.012-7.914,0-10.6,0l.025,1.059s10.575-.015,11.632,0,1.058-1.425,1.058-1.425l-4.54-38.424Z" transform="translate(-1147.186 -34.416)" fill="#0280c4"/><path d="M764.03,524.535H752.75l-3.525,8.108s-.128,1.088-2,1.249H738l-.507,1.057H748.28c1.875-.161,2-1.249,2-1.249l3.525-8.108h9.324c.169-.408.167-.875.9-1.057" transform="translate(-693 -492.891)" fill="#0280c4"/><path d="M1515.64,548.058a2.387,2.387,0,0,1-2.4,2.306h-24.81l-.214,1.058h26.083a2.387,2.387,0,0,0,2.4-2.307l1.41-7.05h-1.269Z" transform="translate(-1398.43 -509.363)" fill="#0280c4"/><path d="M1691.614,66.06h3.048a5.354,5.354,0,0,0,1.183-2.115L1701,36.625h-1.257l-4.955,26.262s-.7,2.82-3.173,3.173" transform="translate(-1589.563 -34.415)" fill="#0280c4"/><path d="M2041.531,548.058a2.387,2.387,0,0,1-2.4,2.306h-24.81l-.214,1.058h26.083a2.387,2.387,0,0,0,2.4-2.307l1.41-7.05h-1.269Z" transform="translate(-1892.596 -509.363)" fill="#0280c4"/><path d="M2217.5,66.06h3.048a5.361,5.361,0,0,0,1.183-2.115l5.154-27.32h-1.257l-4.954,26.262s-.7,2.82-3.173,3.173" transform="translate(-2083.728 -34.415)" fill="#0280c4"/><path d="M2790.512,62.547a2.679,2.679,0,0,1,2-2.134c3.608-1.256,10.358.353,10.358.353,2.82.7,3.172-1.058,3.172-1.058l2.115-6.7c-.443-.093-.877-.179-1.309-.261l-1.863,5.9s-.353,1.763-3.172,1.058c0,0-6.751-1.609-10.359-.352a2.559,2.559,0,0,0-2.011,2.638Z" transform="translate(-2621.156 -49.568)" fill="#0280c4"/><path d="M2562.826,369.69c1.974,2.169,1.749,7.4,1.057,9.165-3.172,8.108-11.081,9.231-19.374,9.533a54.109,54.109,0,0,1-11.349-.913l-.121.721a66.736,66.736,0,0,0,12.527,1.249c11.625.036,19.375-4.95,19.727-11.3.177-3.187-.353-6.7-2.468-8.46" transform="translate(-2380.226 -347.387)" fill="#0280c4"/><path d="M3117.362,685.278l5.514-5.811,1.063,1.052-5.519,5.816Z" transform="translate(-2929.298 -638.476)" fill="#0280c4"/><path d="M0,41.4,7.755,2.976a1.881,1.881,0,0,1,1.763-1.41H21.963L19.741,13.2a6.256,6.256,0,0,1-3.173,4.583H30.316l2.82-14.805s.024-1.41,1.246-1.41H47.188L39.481,40.342A1.725,1.725,0,0,1,38.03,41.4H25.611l2.061-10.751s.705-3.525,2.82-3.525H16.744L14.277,40.166s-.225,1.41-2.4,1.234Z" transform="translate(0 -1.472)" fill="#162f5e"/><path d="M739.766,1.567h-18.22L702.432,41.416h10.789c1.875-.161,2-1.249,2-1.249l3.525-8.108h14.1a1.86,1.86,0,0,0-1.41,1.763l.177,7.594s10.575-.015,11.632,0,1.057-1.425,1.057-1.425ZM721.138,24.3s3.6-1.763,7.834-14.1l1.057,14.1Z" transform="translate(-660.056 -1.472)" fill="#162f5e"/><path d="M1453.152,41.416l7.688-37.91a2.3,2.3,0,0,1,2.557-1.939h11.409l-5.154,27.319s-.7,2.82-3.173,3.173h16.568l-1.41,7.05a2.387,2.387,0,0,1-2.4,2.307Z" transform="translate(-1365.486 -1.472)" fill="#162f5e"/><path d="M1979.042,41.416l7.688-37.91a2.3,2.3,0,0,1,2.557-1.939h11.41l-5.154,27.319s-.7,2.82-3.173,3.173h16.568l-1.41,7.05a2.387,2.387,0,0,1-2.4,2.307Z" transform="translate(-1859.651 -1.472)" fill="#162f5e"/><path d="M2532.173,1.329l-2.115,6.7s-.352,1.763-3.172,1.058c0,0-6.751-1.609-10.358-.352-3.037,1.057-2.332,4.23,0,5.021,1.576.535,14.941,5.2,13.531,14.719-1.379,9.309-11.257,11.17-19.551,11.472-4.42.161-10.765-.544-12.527-1.249,0,0,1.057-6.345,1.41-8.108.138-.691.353-1.763,2.467-1.058,0,0,9.56,2.71,13.219.523,2.644-1.58.989-3.984,0-4.541-4.759-2.68-13.541-5.146-13.219-12.55.353-8.108,8.46-16.215,30.316-11.633" transform="translate(-2347.282 0)" fill="#162f5e"/><path d="M3005.666,577.071l-6.045-5.8,5.693-5.832,5.872,5.817Z" transform="translate(-2818.66 -531.326)" fill="#162f5e"/></g></svg>