<svg xmlns="http://www.w3.org/2000/svg" width="45.527" height="45.527" viewBox="0 0 45.527 45.527">
  <g id="Ilustración_36" data-name="Ilustración 36" transform="translate(22.764 22.764)">
    <g id="Group_344" data-name="Group 344" transform="translate(-22.764 -22.764)">
      <circle id="Ellipse_150" data-name="Ellipse 150" cx="22.764" cy="22.764" r="22.764" fill="#fff"/>
      <g id="Ilustración_31" data-name="Ilustración 31" transform="translate(10.232 11.968)">
        <g id="Ilustración_31-2" data-name="Ilustración 31" transform="translate(0 0)">
          <g id="Group_343" data-name="Group 343">
            <g id="Group_342" data-name="Group 342">
              <path id="Path_2348" data-name="Path 2348" d="M24.373,35.443a1.2,1.2,0,0,1-.862-.353l-8.449-8.151a5.273,5.273,0,0,1-.394-.372c-.168-.174-.429-.481-.777-.916a12.461,12.461,0,0,1-.951-1.364,8.61,8.61,0,0,1-.76-1.718,6.333,6.333,0,0,1-.338-1.991,6.611,6.611,0,0,1,1.837-4.937A6.915,6.915,0,0,1,18.7,13.85a5.811,5.811,0,0,1,1.836.311,7.344,7.344,0,0,1,1.716.83c.509.334.954.654,1.324.95.273.219.538.449.793.69.255-.239.52-.471.793-.69.372-.3.818-.617,1.325-.95a7.338,7.338,0,0,1,1.715-.83,5.811,5.811,0,0,1,1.836-.311,6.919,6.919,0,0,1,5.026,1.79,6.611,6.611,0,0,1,1.837,4.937c0,2.094-1.083,4.237-3.217,6.373l-.005,0L25.236,35.09A1.2,1.2,0,0,1,24.373,35.443Zm9.047-8.762Z" transform="translate(-11.841 -13.85)" fill="red"/>
            </g>
          </g>
        </g>
      </g>
    </g>
  </g>
</svg>
