<svg id="Ilustración_5" data-name="Ilustración 5" xmlns="http://www.w3.org/2000/svg" width="25.986" height="25.986" viewBox="0 0 25.986 25.986">
  <g id="Group_684" data-name="Group 684" transform="translate(0 0)">
    <path id="Path_3979" data-name="Path 3979" d="M45.742,34.54a2.709,2.709,0,0,0-1.553-1.553,4.525,4.525,0,0,0-1.519-.282c-.863-.039-1.121-.048-3.306-.048s-2.443.008-3.306.048a4.525,4.525,0,0,0-1.519.282,2.709,2.709,0,0,0-1.553,1.553,4.521,4.521,0,0,0-.282,1.519c-.039.863-.048,1.121-.048,3.306s.008,2.443.048,3.306a4.521,4.521,0,0,0,.282,1.519,2.709,2.709,0,0,0,1.553,1.553,4.53,4.53,0,0,0,1.519.282c.863.039,1.121.048,3.306.048s2.443-.008,3.306-.048a4.53,4.53,0,0,0,1.519-.282,2.709,2.709,0,0,0,1.553-1.553,4.525,4.525,0,0,0,.282-1.519c.039-.863.048-1.121.048-3.306s-.008-2.443-.048-3.306A4.525,4.525,0,0,0,45.742,34.54Zm-6.377,9.026a4.2,4.2,0,1,1,4.2-4.2A4.2,4.2,0,0,1,39.365,43.566Zm4.367-7.586A.982.982,0,1,1,44.713,35,.982.982,0,0,1,43.732,35.979Z" transform="translate(-26.372 -26.372)" fill="#162f5e"/>
    <circle id="Ellipse_200" data-name="Ellipse 200" cx="2.727" cy="2.727" r="2.727" transform="translate(9.593 11.173) rotate(-16.845)" fill="#162f5e"/>
    <path id="Path_3980" data-name="Path 3980" d="M12.993,0A12.993,12.993,0,1,0,25.986,12.993,12.993,12.993,0,0,0,12.993,0Zm8.131,16.366a6.006,6.006,0,0,1-.38,1.986,4.183,4.183,0,0,1-2.393,2.393,6.006,6.006,0,0,1-1.986.38c-.873.04-1.151.049-3.373.049s-2.5-.009-3.373-.049a6.006,6.006,0,0,1-1.986-.38,4.183,4.183,0,0,1-2.393-2.393,6.006,6.006,0,0,1-.38-1.986c-.04-.873-.049-1.151-.049-3.373s.009-2.5.049-3.373a6.006,6.006,0,0,1,.38-1.986A4.183,4.183,0,0,1,7.634,5.242a6.006,6.006,0,0,1,1.986-.38c.873-.04,1.151-.049,3.373-.049s2.5.009,3.373.049a6.006,6.006,0,0,1,1.986.38,4.183,4.183,0,0,1,2.393,2.393,6.006,6.006,0,0,1,.38,1.986c.04.873.049,1.151.049,3.373S21.164,15.493,21.124,16.366Z" fill="#162f5e"/>
  </g>
</svg>
