<svg xmlns="http://www.w3.org/2000/svg" width="44.657" height="44.658" viewBox="0 0 44.657 44.658">
  <g id="Ilustración_29" data-name="Ilustración 29" transform="translate(22.329 22.329)">
    <g id="Group_345" data-name="Group 345" transform="translate(-22.329 -22.329)">
      <circle id="Ellipse_151" data-name="Ellipse 151" cx="22.329" cy="22.329" r="22.329" fill="#6d319b"/>
      <path id="Path_2349" data-name="Path 2349" d="M64.267,63.257l6.009-6.009a2.451,2.451,0,0,0,0-3.465h0a2.451,2.451,0,0,0-3.466,0L60.8,59.792l-6.009-6.009a2.451,2.451,0,0,0-3.466,0h0a2.451,2.451,0,0,0,0,3.465l6.009,6.009-6.009,6.009a2.451,2.451,0,0,0,3.466,3.465L60.8,66.723l6.009,6.009a2.451,2.451,0,0,0,3.466-3.465Z" transform="translate(-38.472 -40.339)" fill="#fff"/>
    </g>
  </g>
</svg>
