<svg xmlns="http://www.w3.org/2000/svg" width="44.671" height="44.671" viewBox="0 0 44.671 44.671">
  <g id="Ilustración_5" data-name="Ilustración 5" transform="translate(-812.5 -75.664)">
    <g id="Group_392" data-name="Group 392" transform="translate(812.5 75.664)">
      <path id="Path_2366" data-name="Path 2366" d="M55.15,35.893a4.656,4.656,0,0,0-2.669-2.669,7.778,7.778,0,0,0-2.611-.484c-1.483-.068-1.928-.082-5.683-.082s-4.2.014-5.683.082a7.778,7.778,0,0,0-2.611.484,4.656,4.656,0,0,0-2.669,2.669A7.772,7.772,0,0,0,32.74,38.5c-.068,1.483-.082,1.928-.082,5.683s.014,4.2.082,5.683a7.772,7.772,0,0,0,.484,2.611,4.656,4.656,0,0,0,2.669,2.669,7.787,7.787,0,0,0,2.611.484c1.483.068,1.927.082,5.683.082s4.2-.014,5.683-.082a7.787,7.787,0,0,0,2.611-.484,4.656,4.656,0,0,0,2.669-2.669,7.778,7.778,0,0,0,.484-2.611c.068-1.483.082-1.928.082-5.683s-.014-4.2-.082-5.683A7.778,7.778,0,0,0,55.15,35.893ZM44.187,51.409a7.222,7.222,0,1,1,7.222-7.222A7.222,7.222,0,0,1,44.187,51.409Zm7.507-13.041a1.688,1.688,0,1,1,1.688-1.688A1.687,1.687,0,0,1,51.694,38.368Z" transform="translate(-21.851 -21.851)" fill="#fff"/>
      <circle id="Ellipse_166" data-name="Ellipse 166" cx="4.688" cy="4.688" r="4.688" transform="translate(16.491 19.208) rotate(-16.845)" fill="#fff"/>
      <path id="Path_2367" data-name="Path 2367" d="M22.336,0A22.336,22.336,0,1,0,44.671,22.336,22.336,22.336,0,0,0,22.336,0ZM36.314,28.134a10.324,10.324,0,0,1-.654,3.414,7.191,7.191,0,0,1-4.113,4.113,10.324,10.324,0,0,1-3.414.654c-1.5.068-1.979.085-5.8.085s-4.3-.016-5.8-.085a10.324,10.324,0,0,1-3.414-.654,7.191,7.191,0,0,1-4.113-4.113,10.324,10.324,0,0,1-.654-3.414c-.068-1.5-.085-1.979-.085-5.8s.016-4.3.085-5.8a10.324,10.324,0,0,1,.654-3.414,7.191,7.191,0,0,1,4.113-4.113,10.324,10.324,0,0,1,3.414-.654c1.5-.068,1.979-.085,5.8-.085s4.3.016,5.8.085a10.324,10.324,0,0,1,3.414.654,7.191,7.191,0,0,1,4.113,4.113,10.324,10.324,0,0,1,.654,3.414c.068,1.5.085,1.979.085,5.8S36.383,26.634,36.314,28.134Z" fill="#fff"/>
    </g>
  </g>
</svg>
